{"title":"Sucker Punch [2011] TS Rip New Audio-D3MT","uid":6310441,"size":1177884178,"categoryP":"video","categoryS":"movies","magnet":"?xt=urn:btih:bc10d5f96ca6c32a9d48068fc4c858ce869598c8&amp;dn=Sucker+Punch+%5B2011%5D+TS+Rip+New+Audio-D3MT&amp;tr=udp%3A%2F%2Ftracker.openbittorrent.com%3A80&amp;tr=udp%3A%2F%2Fopen.demonii.com%3A1337&amp;tr=udp%3A%2F%2Ftracker.coppersurfer.tk%3A6969&amp;tr=udp%3A%2F%2Fexodus.desync.com%3A6969","seeders":0,"leechers":0,"uploader":"arihantkatariya","files":2,"time":1302516580,"description":"Format : AVI\nFormat/Info : Audio Video Interleave\nFormat profile : OpenDML\nFile size : 1.07 GiB\nDuration : 1h 38mn\nOverall bit rate : 1 556 Kbps\nWriting application : Lavf52.39.1\n\nVideo\nID : 0\nFormat : MPEG-4 Visual\nFormat settings, BVOP : 1\nFormat settings, QPel : No\nFormat settings, GMC : No warppoints\nFormat settings, Matrix : Default (H.263)\nMuxing mode : Packed bitstream\nCodec ID : DX50\nCodec ID/Hint : DivX 5\nDuration : 1h 38mn\nBit rate : 77.6 Kbps\nWidth : 720 pixels\nHeight : 320 pixels\nDisplay aspect ratio : 2.25:1\nFrame rate : 25.000 fps\nColor space : YUV\nChroma subsampling : 4:2:0\nBit depth : 8 bits\nScan type : Progressive\nCompression mode : Lossy\nBits/(Pixel*Frame) : 0.013\nStream size : 54.4 MiB (5%)\nWriting library : DivX 6.8.5 (UTC 2009-08-20)\n\nAudio\nID : 1\nFormat : MPEG Audio\nFormat version : Version 1\nCodec ID : 50\nDuration : 1h 38mn\nBit rate : 64.0 Kbps\nChannel(s) : 2 channels\nSampling rate : 48.0 KHz\nCompression mode : Lossy\nStream size : 44.9 MiB (4%)\nAlignment : Aligned on interleaves ","torrent":{"xt":"urn:btih:bc10d5f96ca6c32a9d48068fc4c858ce869598c8","amp;dn":"Sucker+Punch+%5B2011%5D+TS+Rip+New+Audio-D3MT","amp;tr":["udp%3A%2F%2Ftracker.openbittorrent.com%3A80","udp%3A%2F%2Fopen.demonii.com%3A1337","udp%3A%2F%2Ftracker.coppersurfer.tk%3A6969","udp%3A%2F%2Fexodus.desync.com%3A6969"],"infoHash":"bc10d5f96ca6c32a9d48068fc4c858ce869598c8","infoHashBuffer":{"type":"Buffer","data":[188,16,213,249,108,166,195,42,157,72,6,143,196,200,88,206,134,149,152,200]},"announce":[],"urlList":[]}}